<mxfile host="app.diagrams.net" modified="2024-06-24T05:26:17.155Z" agent="Mozilla/5.0 (Macintosh; Intel Mac OS X 10_15_7) AppleWebKit/537.36 (KHTML, like Gecko) Chrome/125.0.0.0 Safari/537.36" etag="XThiOhda4sGSOsnpCjRR" version="24.6.2" type="device">
  <diagram name="Page-1" id="ZrQ4E8rdgtlPwCTKwwUb">
    <mxGraphModel dx="1434" dy="795" grid="1" gridSize="10" guides="1" tooltips="1" connect="1" arrows="1" fold="1" page="1" pageScale="1" pageWidth="850" pageHeight="1100" math="0" shadow="0">
      <root>
        <mxCell id="0" />
        <mxCell id="1" parent="0" />
        <mxCell id="8YKS98b0J3CMirZMJ1gD-73" value="" style="group" parent="1" vertex="1" connectable="0">
          <mxGeometry x="120" y="50" width="250" height="250" as="geometry" />
        </mxCell>
        <mxCell id="8YKS98b0J3CMirZMJ1gD-64" value="&lt;div&gt;&lt;span style=&quot;background-color: initial;&quot;&gt;&lt;font style=&quot;font-size: 12px;&quot;&gt;Web&lt;/font&gt;&lt;/span&gt;&lt;br&gt;&lt;/div&gt;" style="ellipse;whiteSpace=wrap;html=1;aspect=fixed;verticalAlign=top;fillColor=#d5e8d4;strokeColor=#82b366;" parent="8YKS98b0J3CMirZMJ1gD-73" vertex="1">
          <mxGeometry width="250" height="250" as="geometry" />
        </mxCell>
        <mxCell id="8YKS98b0J3CMirZMJ1gD-63" value="&lt;div&gt;&lt;span style=&quot;background-color: initial;&quot;&gt;&lt;font style=&quot;font-size: 12px;&quot;&gt;Infrastructure&lt;/font&gt;&lt;/span&gt;&lt;br&gt;&lt;/div&gt;" style="ellipse;whiteSpace=wrap;html=1;aspect=fixed;verticalAlign=top;fillColor=#dae8fc;strokeColor=#6c8ebf;" parent="8YKS98b0J3CMirZMJ1gD-73" vertex="1">
          <mxGeometry x="25" y="30" width="200" height="200" as="geometry" />
        </mxCell>
        <mxCell id="8YKS98b0J3CMirZMJ1gD-62" value="&lt;div&gt;&lt;span style=&quot;background-color: initial;&quot;&gt;&lt;font style=&quot;font-size: 12px;&quot;&gt;Application&lt;/font&gt;&lt;/span&gt;&lt;br&gt;&lt;/div&gt;" style="ellipse;whiteSpace=wrap;html=1;aspect=fixed;verticalAlign=top;fillColor=#f8cecc;strokeColor=#b85450;" parent="8YKS98b0J3CMirZMJ1gD-73" vertex="1">
          <mxGeometry x="54.25" y="58.75" width="142.5" height="142.5" as="geometry" />
        </mxCell>
        <mxCell id="8YKS98b0J3CMirZMJ1gD-61" value="&lt;font style=&quot;font-size: 12px;&quot;&gt;Domain&lt;/font&gt;" style="ellipse;whiteSpace=wrap;html=1;aspect=fixed;fillColor=#fff2cc;strokeColor=#d6b656;" parent="8YKS98b0J3CMirZMJ1gD-73" vertex="1">
          <mxGeometry x="78" y="82.5" width="95" height="95" as="geometry" />
        </mxCell>
        <mxCell id="8YKS98b0J3CMirZMJ1gD-74" value="" style="group" parent="1" vertex="1" connectable="0">
          <mxGeometry x="430" y="60" width="300" height="220" as="geometry" />
        </mxCell>
        <mxCell id="8YKS98b0J3CMirZMJ1gD-65" value="Web" style="rounded=0;whiteSpace=wrap;html=1;fillColor=#d5e8d4;strokeColor=#82b366;" parent="8YKS98b0J3CMirZMJ1gD-74" vertex="1">
          <mxGeometry y="20" width="300" height="40" as="geometry" />
        </mxCell>
        <mxCell id="8YKS98b0J3CMirZMJ1gD-66" value="Infrastructure" style="rounded=0;whiteSpace=wrap;html=1;fillColor=#dae8fc;strokeColor=#6c8ebf;" parent="8YKS98b0J3CMirZMJ1gD-74" vertex="1">
          <mxGeometry y="70" width="300" height="40" as="geometry" />
        </mxCell>
        <mxCell id="8YKS98b0J3CMirZMJ1gD-67" value="Application" style="rounded=0;whiteSpace=wrap;html=1;fillColor=#f8cecc;strokeColor=#b85450;" parent="8YKS98b0J3CMirZMJ1gD-74" vertex="1">
          <mxGeometry y="120" width="300" height="40" as="geometry" />
        </mxCell>
        <mxCell id="8YKS98b0J3CMirZMJ1gD-68" value="Domain" style="rounded=0;whiteSpace=wrap;html=1;fillColor=#fff2cc;strokeColor=#d6b656;" parent="8YKS98b0J3CMirZMJ1gD-74" vertex="1">
          <mxGeometry y="170" width="300" height="40" as="geometry" />
        </mxCell>
        <mxCell id="8YKS98b0J3CMirZMJ1gD-69" value="Product Catalog" style="rounded=0;whiteSpace=wrap;html=1;textDirection=vertical-lr;fillColor=#fad7ac;strokeColor=#b46504;" parent="8YKS98b0J3CMirZMJ1gD-74" vertex="1">
          <mxGeometry x="20" y="10" width="30" height="210" as="geometry" />
        </mxCell>
        <mxCell id="8YKS98b0J3CMirZMJ1gD-71" value="Order Management" style="rounded=0;whiteSpace=wrap;html=1;textDirection=vertical-lr;fillColor=#b0e3e6;strokeColor=#0e8088;" parent="8YKS98b0J3CMirZMJ1gD-74" vertex="1">
          <mxGeometry x="65" y="10" width="30" height="210" as="geometry" />
        </mxCell>
        <mxCell id="8YKS98b0J3CMirZMJ1gD-75" value="" style="group" parent="1" vertex="1" connectable="0">
          <mxGeometry x="127.99999999999999" y="330" width="595" height="419.58000000000004" as="geometry" />
        </mxCell>
        <mxCell id="8YKS98b0J3CMirZMJ1gD-54" style="edgeStyle=orthogonalEdgeStyle;rounded=0;orthogonalLoop=1;jettySize=auto;html=1;entryX=0.5;entryY=0;entryDx=0;entryDy=0;" parent="8YKS98b0J3CMirZMJ1gD-75" source="8YKS98b0J3CMirZMJ1gD-1" target="8YKS98b0J3CMirZMJ1gD-12" edge="1">
          <mxGeometry relative="1" as="geometry" />
        </mxCell>
        <mxCell id="8YKS98b0J3CMirZMJ1gD-1" value="Product" style="rounded=0;whiteSpace=wrap;html=1;verticalAlign=middle;fillColor=#fad7ac;strokeColor=#b46504;" parent="8YKS98b0J3CMirZMJ1gD-75" vertex="1">
          <mxGeometry x="170.42000000000002" y="78" width="100" height="40" as="geometry" />
        </mxCell>
        <mxCell id="8YKS98b0J3CMirZMJ1gD-53" style="edgeStyle=orthogonalEdgeStyle;rounded=0;orthogonalLoop=1;jettySize=auto;html=1;entryX=0;entryY=0.5;entryDx=0;entryDy=0;" parent="8YKS98b0J3CMirZMJ1gD-75" source="8YKS98b0J3CMirZMJ1gD-9" target="8YKS98b0J3CMirZMJ1gD-1" edge="1">
          <mxGeometry relative="1" as="geometry" />
        </mxCell>
        <mxCell id="8YKS98b0J3CMirZMJ1gD-9" value="Supplier" style="rounded=0;whiteSpace=wrap;html=1;verticalAlign=middle;fillColor=#fad7ac;strokeColor=#b46504;" parent="8YKS98b0J3CMirZMJ1gD-75" vertex="1">
          <mxGeometry x="30.42" y="78" width="100" height="40" as="geometry" />
        </mxCell>
        <mxCell id="8YKS98b0J3CMirZMJ1gD-56" style="edgeStyle=orthogonalEdgeStyle;rounded=0;orthogonalLoop=1;jettySize=auto;html=1;" parent="8YKS98b0J3CMirZMJ1gD-75" source="8YKS98b0J3CMirZMJ1gD-10" edge="1">
          <mxGeometry relative="1" as="geometry">
            <mxPoint x="510.41999999999996" y="120" as="targetPoint" />
          </mxGeometry>
        </mxCell>
        <mxCell id="8YKS98b0J3CMirZMJ1gD-10" value="Order Item" style="rounded=0;whiteSpace=wrap;html=1;verticalAlign=middle;fillColor=#b0e3e6;strokeColor=#0e8088;" parent="8YKS98b0J3CMirZMJ1gD-75" vertex="1">
          <mxGeometry x="460.41999999999996" y="160" width="100" height="40" as="geometry" />
        </mxCell>
        <mxCell id="8YKS98b0J3CMirZMJ1gD-55" style="edgeStyle=orthogonalEdgeStyle;rounded=0;orthogonalLoop=1;jettySize=auto;html=1;entryX=1;entryY=0.5;entryDx=0;entryDy=0;" parent="8YKS98b0J3CMirZMJ1gD-75" source="8YKS98b0J3CMirZMJ1gD-11" target="8YKS98b0J3CMirZMJ1gD-50" edge="1">
          <mxGeometry relative="1" as="geometry" />
        </mxCell>
        <mxCell id="8YKS98b0J3CMirZMJ1gD-11" value="Order" style="rounded=0;whiteSpace=wrap;html=1;verticalAlign=middle;fillColor=#b0e3e6;strokeColor=#0e8088;" parent="8YKS98b0J3CMirZMJ1gD-75" vertex="1">
          <mxGeometry x="460.41999999999996" y="78" width="100" height="40" as="geometry" />
        </mxCell>
        <mxCell id="8YKS98b0J3CMirZMJ1gD-12" value="Customer" style="rounded=0;whiteSpace=wrap;html=1;verticalAlign=middle;fillColor=#fad7ac;strokeColor=#b46504;" parent="8YKS98b0J3CMirZMJ1gD-75" vertex="1">
          <mxGeometry x="170.42000000000002" y="160" width="100" height="40" as="geometry" />
        </mxCell>
        <mxCell id="8YKS98b0J3CMirZMJ1gD-14" value="TotalStatistics" style="rounded=0;whiteSpace=wrap;html=1;verticalAlign=middle;fillColor=#bac8d3;strokeColor=#23445d;" parent="8YKS98b0J3CMirZMJ1gD-75" vertex="1">
          <mxGeometry x="400.41999999999996" y="300" width="100" height="40" as="geometry" />
        </mxCell>
        <mxCell id="8YKS98b0J3CMirZMJ1gD-15" value="" style="endArrow=none;dashed=1;html=1;rounded=0;" parent="8YKS98b0J3CMirZMJ1gD-75" edge="1">
          <mxGeometry width="50" height="50" relative="1" as="geometry">
            <mxPoint x="0.4200000000000159" y="50" as="sourcePoint" />
            <mxPoint x="290.42" y="50" as="targetPoint" />
          </mxGeometry>
        </mxCell>
        <mxCell id="8YKS98b0J3CMirZMJ1gD-17" value="" style="endArrow=none;dashed=1;html=1;rounded=0;" parent="8YKS98b0J3CMirZMJ1gD-75" edge="1">
          <mxGeometry width="50" height="50" relative="1" as="geometry">
            <mxPoint x="0.4200000000000159" y="50" as="sourcePoint" />
            <mxPoint x="0.4200000000000159" y="140" as="targetPoint" />
          </mxGeometry>
        </mxCell>
        <mxCell id="8YKS98b0J3CMirZMJ1gD-18" value="" style="endArrow=none;dashed=1;html=1;rounded=0;" parent="8YKS98b0J3CMirZMJ1gD-75" edge="1">
          <mxGeometry width="50" height="50" relative="1" as="geometry">
            <mxPoint x="0.4200000000000159" y="230" as="sourcePoint" />
            <mxPoint x="290.42" y="230" as="targetPoint" />
          </mxGeometry>
        </mxCell>
        <mxCell id="8YKS98b0J3CMirZMJ1gD-20" value="" style="endArrow=none;dashed=1;html=1;rounded=0;" parent="8YKS98b0J3CMirZMJ1gD-75" edge="1">
          <mxGeometry width="50" height="50" relative="1" as="geometry">
            <mxPoint x="290.42" y="140" as="sourcePoint" />
            <mxPoint x="290.42" y="50" as="targetPoint" />
          </mxGeometry>
        </mxCell>
        <mxCell id="8YKS98b0J3CMirZMJ1gD-21" value="Product Catalog" style="text;html=1;align=center;verticalAlign=middle;resizable=0;points=[];autosize=1;strokeColor=none;fillColor=none;fontSize=14;fontStyle=1" parent="8YKS98b0J3CMirZMJ1gD-75" vertex="1">
          <mxGeometry x="85.42" y="48" width="120" height="30" as="geometry" />
        </mxCell>
        <mxCell id="8YKS98b0J3CMirZMJ1gD-22" value="" style="endArrow=none;dashed=1;html=1;rounded=0;" parent="8YKS98b0J3CMirZMJ1gD-75" edge="1">
          <mxGeometry width="50" height="50" relative="1" as="geometry">
            <mxPoint x="290.42" y="230" as="sourcePoint" />
            <mxPoint x="290.42" y="140" as="targetPoint" />
          </mxGeometry>
        </mxCell>
        <mxCell id="8YKS98b0J3CMirZMJ1gD-23" value="" style="endArrow=none;dashed=1;html=1;rounded=0;" parent="8YKS98b0J3CMirZMJ1gD-75" edge="1">
          <mxGeometry width="50" height="50" relative="1" as="geometry">
            <mxPoint x="0.4200000000000159" y="230" as="sourcePoint" />
            <mxPoint x="0.4200000000000159" y="140" as="targetPoint" />
          </mxGeometry>
        </mxCell>
        <mxCell id="8YKS98b0J3CMirZMJ1gD-24" value="Customer" style="rounded=0;whiteSpace=wrap;html=1;verticalAlign=middle;fillColor=#b0e3e6;strokeColor=#0e8088;" parent="8YKS98b0J3CMirZMJ1gD-75" vertex="1">
          <mxGeometry x="330.42" y="160" width="100" height="40" as="geometry" />
        </mxCell>
        <mxCell id="8YKS98b0J3CMirZMJ1gD-25" value="" style="endArrow=none;dashed=1;html=1;rounded=0;" parent="8YKS98b0J3CMirZMJ1gD-75" edge="1">
          <mxGeometry width="50" height="50" relative="1" as="geometry">
            <mxPoint x="305" y="228" as="sourcePoint" />
            <mxPoint x="595" y="228" as="targetPoint" />
          </mxGeometry>
        </mxCell>
        <mxCell id="8YKS98b0J3CMirZMJ1gD-26" value="" style="endArrow=none;dashed=1;html=1;rounded=0;" parent="8YKS98b0J3CMirZMJ1gD-75" edge="1">
          <mxGeometry width="50" height="50" relative="1" as="geometry">
            <mxPoint x="305" y="228" as="sourcePoint" />
            <mxPoint x="305" y="48" as="targetPoint" />
          </mxGeometry>
        </mxCell>
        <mxCell id="8YKS98b0J3CMirZMJ1gD-27" value="" style="endArrow=none;dashed=1;html=1;rounded=0;" parent="8YKS98b0J3CMirZMJ1gD-75" edge="1">
          <mxGeometry width="50" height="50" relative="1" as="geometry">
            <mxPoint x="595" y="48" as="sourcePoint" />
            <mxPoint x="305" y="48" as="targetPoint" />
          </mxGeometry>
        </mxCell>
        <mxCell id="8YKS98b0J3CMirZMJ1gD-28" value="" style="endArrow=none;dashed=1;html=1;rounded=0;" parent="8YKS98b0J3CMirZMJ1gD-75" edge="1">
          <mxGeometry width="50" height="50" relative="1" as="geometry">
            <mxPoint x="595" y="48" as="sourcePoint" />
            <mxPoint x="595" y="228" as="targetPoint" />
          </mxGeometry>
        </mxCell>
        <mxCell id="8YKS98b0J3CMirZMJ1gD-29" value="Customer" style="rounded=0;whiteSpace=wrap;html=1;verticalAlign=middle;fillColor=#d0cee2;strokeColor=#56517e;" parent="8YKS98b0J3CMirZMJ1gD-75" vertex="1">
          <mxGeometry x="170.42000000000002" y="250" width="100" height="40" as="geometry" />
        </mxCell>
        <mxCell id="8YKS98b0J3CMirZMJ1gD-30" value="" style="shape=link;html=1;rounded=0;entryX=0;entryY=0.5;entryDx=0;entryDy=0;exitX=1;exitY=0.5;exitDx=0;exitDy=0;" parent="8YKS98b0J3CMirZMJ1gD-75" source="8YKS98b0J3CMirZMJ1gD-12" target="8YKS98b0J3CMirZMJ1gD-24" edge="1">
          <mxGeometry width="100" relative="1" as="geometry">
            <mxPoint x="260.42" y="220" as="sourcePoint" />
            <mxPoint x="360.42" y="220" as="targetPoint" />
          </mxGeometry>
        </mxCell>
        <mxCell id="8YKS98b0J3CMirZMJ1gD-31" value="" style="shape=link;html=1;rounded=0;entryX=0.5;entryY=0;entryDx=0;entryDy=0;exitX=0.5;exitY=1;exitDx=0;exitDy=0;" parent="8YKS98b0J3CMirZMJ1gD-75" source="8YKS98b0J3CMirZMJ1gD-12" target="8YKS98b0J3CMirZMJ1gD-29" edge="1">
          <mxGeometry width="100" relative="1" as="geometry">
            <mxPoint x="280.42" y="190" as="sourcePoint" />
            <mxPoint x="340.42" y="190" as="targetPoint" />
          </mxGeometry>
        </mxCell>
        <mxCell id="8YKS98b0J3CMirZMJ1gD-32" value="" style="endArrow=none;dashed=1;html=1;rounded=0;" parent="8YKS98b0J3CMirZMJ1gD-75" edge="1">
          <mxGeometry width="50" height="50" relative="1" as="geometry">
            <mxPoint y="419.58000000000004" as="sourcePoint" />
            <mxPoint x="290" y="419.58000000000004" as="targetPoint" />
          </mxGeometry>
        </mxCell>
        <mxCell id="8YKS98b0J3CMirZMJ1gD-33" value="" style="endArrow=none;dashed=1;html=1;rounded=0;" parent="8YKS98b0J3CMirZMJ1gD-75" edge="1">
          <mxGeometry width="50" height="50" relative="1" as="geometry">
            <mxPoint y="419.58000000000004" as="sourcePoint" />
            <mxPoint y="239.58000000000004" as="targetPoint" />
          </mxGeometry>
        </mxCell>
        <mxCell id="8YKS98b0J3CMirZMJ1gD-34" value="" style="endArrow=none;dashed=1;html=1;rounded=0;" parent="8YKS98b0J3CMirZMJ1gD-75" edge="1">
          <mxGeometry width="50" height="50" relative="1" as="geometry">
            <mxPoint x="290" y="239.58000000000004" as="sourcePoint" />
            <mxPoint y="239.58000000000004" as="targetPoint" />
          </mxGeometry>
        </mxCell>
        <mxCell id="8YKS98b0J3CMirZMJ1gD-35" value="" style="endArrow=none;dashed=1;html=1;rounded=0;" parent="8YKS98b0J3CMirZMJ1gD-75" edge="1">
          <mxGeometry width="50" height="50" relative="1" as="geometry">
            <mxPoint x="290" y="239.58000000000004" as="sourcePoint" />
            <mxPoint x="290" y="419.58000000000004" as="targetPoint" />
          </mxGeometry>
        </mxCell>
        <mxCell id="8YKS98b0J3CMirZMJ1gD-36" value="" style="endArrow=none;dashed=1;html=1;rounded=0;" parent="8YKS98b0J3CMirZMJ1gD-75" edge="1">
          <mxGeometry width="50" height="50" relative="1" as="geometry">
            <mxPoint x="305" y="419.58000000000004" as="sourcePoint" />
            <mxPoint x="595" y="419.58000000000004" as="targetPoint" />
          </mxGeometry>
        </mxCell>
        <mxCell id="8YKS98b0J3CMirZMJ1gD-37" value="" style="endArrow=none;dashed=1;html=1;rounded=0;" parent="8YKS98b0J3CMirZMJ1gD-75" edge="1">
          <mxGeometry width="50" height="50" relative="1" as="geometry">
            <mxPoint x="305" y="419.58000000000004" as="sourcePoint" />
            <mxPoint x="305" y="239.58000000000004" as="targetPoint" />
          </mxGeometry>
        </mxCell>
        <mxCell id="8YKS98b0J3CMirZMJ1gD-38" value="" style="endArrow=none;dashed=1;html=1;rounded=0;" parent="8YKS98b0J3CMirZMJ1gD-75" edge="1">
          <mxGeometry width="50" height="50" relative="1" as="geometry">
            <mxPoint x="595" y="239.58000000000004" as="sourcePoint" />
            <mxPoint x="305" y="239.58000000000004" as="targetPoint" />
          </mxGeometry>
        </mxCell>
        <mxCell id="8YKS98b0J3CMirZMJ1gD-39" value="" style="endArrow=none;dashed=1;html=1;rounded=0;" parent="8YKS98b0J3CMirZMJ1gD-75" edge="1">
          <mxGeometry width="50" height="50" relative="1" as="geometry">
            <mxPoint x="595" y="239.58000000000004" as="sourcePoint" />
            <mxPoint x="595" y="419.58000000000004" as="targetPoint" />
          </mxGeometry>
        </mxCell>
        <mxCell id="8YKS98b0J3CMirZMJ1gD-44" value="Statistics" style="text;html=1;align=center;verticalAlign=middle;resizable=0;points=[];autosize=1;strokeColor=none;fillColor=none;fontStyle=1;fontSize=14;" parent="8YKS98b0J3CMirZMJ1gD-75" vertex="1">
          <mxGeometry x="410.41999999999996" y="240" width="80" height="30" as="geometry" />
        </mxCell>
        <mxCell id="8YKS98b0J3CMirZMJ1gD-47" value="Order Management" style="text;html=1;align=center;verticalAlign=middle;resizable=0;points=[];autosize=1;strokeColor=none;fillColor=none;fontStyle=1;fontSize=14;" parent="8YKS98b0J3CMirZMJ1gD-75" vertex="1">
          <mxGeometry x="375.42" y="48" width="140" height="30" as="geometry" />
        </mxCell>
        <mxCell id="8YKS98b0J3CMirZMJ1gD-48" value="Identity" style="text;html=1;align=center;verticalAlign=middle;resizable=0;points=[];autosize=1;strokeColor=none;fillColor=none;fontStyle=1;fontSize=14;" parent="8YKS98b0J3CMirZMJ1gD-75" vertex="1">
          <mxGeometry x="95.42" y="240" width="70" height="30" as="geometry" />
        </mxCell>
        <mxCell id="8YKS98b0J3CMirZMJ1gD-49" value="User" style="rounded=0;whiteSpace=wrap;html=1;verticalAlign=middle;fillColor=#d0cee2;strokeColor=#56517e;" parent="8YKS98b0J3CMirZMJ1gD-75" vertex="1">
          <mxGeometry x="85.42" y="310" width="100" height="40" as="geometry" />
        </mxCell>
        <mxCell id="8YKS98b0J3CMirZMJ1gD-50" value="Product" style="rounded=0;whiteSpace=wrap;html=1;verticalAlign=middle;fillColor=#b0e3e6;strokeColor=#0e8088;" parent="8YKS98b0J3CMirZMJ1gD-75" vertex="1">
          <mxGeometry x="330.42" y="78" width="100" height="40" as="geometry" />
        </mxCell>
        <mxCell id="8YKS98b0J3CMirZMJ1gD-51" value="" style="shape=link;html=1;rounded=0;entryX=0;entryY=0.5;entryDx=0;entryDy=0;exitX=1;exitY=0.5;exitDx=0;exitDy=0;" parent="8YKS98b0J3CMirZMJ1gD-75" source="8YKS98b0J3CMirZMJ1gD-1" target="8YKS98b0J3CMirZMJ1gD-50" edge="1">
          <mxGeometry width="100" relative="1" as="geometry">
            <mxPoint x="280.42" y="190" as="sourcePoint" />
            <mxPoint x="340.42" y="190" as="targetPoint" />
          </mxGeometry>
        </mxCell>
        <mxCell id="8YKS98b0J3CMirZMJ1gD-59" style="edgeStyle=orthogonalEdgeStyle;rounded=0;orthogonalLoop=1;jettySize=auto;html=1;exitX=0.109;exitY=1;exitDx=0;exitDy=0;exitPerimeter=0;" parent="8YKS98b0J3CMirZMJ1gD-75" source="8YKS98b0J3CMirZMJ1gD-11" target="8YKS98b0J3CMirZMJ1gD-24" edge="1">
          <mxGeometry relative="1" as="geometry">
            <mxPoint x="471.41999999999996" y="120" as="sourcePoint" />
            <mxPoint x="440.41999999999996" y="108" as="targetPoint" />
            <Array as="points">
              <mxPoint x="471.41999999999996" y="140" />
              <mxPoint x="380.42" y="140" />
            </Array>
          </mxGeometry>
        </mxCell>
        <mxCell id="8YKS98b0J3CMirZMJ1gD-60" value="Bounded contexts" style="text;html=1;align=center;verticalAlign=middle;resizable=0;points=[];autosize=1;strokeColor=none;fillColor=none;fontSize=16;fontStyle=1" parent="8YKS98b0J3CMirZMJ1gD-75" vertex="1">
          <mxGeometry x="220.42000000000002" width="150" height="30" as="geometry" />
        </mxCell>
        <mxCell id="8YKS98b0J3CMirZMJ1gD-76" value="Onion Architecture with Vertical slices" style="text;html=1;align=center;verticalAlign=middle;resizable=0;points=[];autosize=1;strokeColor=none;fillColor=none;fontSize=16;fontStyle=1" parent="1" vertex="1">
          <mxGeometry x="260" y="8" width="290" height="30" as="geometry" />
        </mxCell>
      </root>
    </mxGraphModel>
  </diagram>
</mxfile>
